{"title":"The Blues Brothers 1980 {1080p}{5.1}{AAC}{DTS MA Source}{PcTechP","uid":9749584,"size":3254349987,"categoryP":"video","categoryS":"hd___movies","magnet":"?xt=urn:btih:04eaed7b9ad66cd7f25fc3b643f7695178bd8901&amp;dn=The+Blues+Brothers+1980+%7B1080p%7D%7B5.1%7D%7BAAC%7D%7BDTS+MA+Source%7D%7BPcTechP&amp;tr=udp%3A%2F%2Ftracker.openbittorrent.com%3A80&amp;tr=udp%3A%2F%2Fopen.demonii.com%3A1337&amp;tr=udp%3A%2F%2Ftracker.coppersurfer.tk%3A6969&amp;tr=udp%3A%2F%2Fexodus.desync.com%3A6969","seeders":1,"leechers":2,"uploader":"PCTECHPAUL","files":8,"time":1394645984,"description":"***********************************************************************\nThe Blues Brothers (1980)\n***********************************************************************\nEncoded By PcTechPaul\n\n-------------------------------------------------------------------------------\nGeneral Information\n-------------------------------------------------------------------------------\nType.................: Movie\nPlatform.............: Video\nMore Info............:\n\nVideo Format.........: mp4\nVideo Bitrate........: 2482\nResolution...........: 1080p\nColor................: 8 bit\nFPS..................: 23.976\nSource...............: Bluray\nOriginal Format......: NTSC\nGenre................: Action | Comedy | Crime\nIMDb Rating..........: 8.0\nMovie Information....: http://www.imdb.com/title/tt0080455/\n\n-------------------------------------------------------------------------------\nRelease Notes\n-------------------------------------------------------------------------------\nComplete name : M:The Blues Brothersbluesborthers.mp4\nFormat : MPEG-4\nFormat profile : Base Media / Version 2\nCodec ID : mp42\nFile size : 3.03 GiB\nDuration : 2h 27mn\nOverall bit rate mode : Variable\nOverall bit rate : 2935 Kbps\n\nVideo\nID : 1\nFormat : AVC\nFormat/Info : Advanced Video Codec\nFormat profile : &lt;a class=&quot;__cf_email__&quot; href=&quot;/cdn-cgi/l/email-protection&quot; data-cfemail=&quot;125a7b757a525e273c23&quot;&gt;[email&amp;#160;protected]&lt;/a&gt;&lt;script cf-hash='f9e31' type=&quot;text/javascript&quot;&gt;\n/* &lt;![CDATA[ */!function(){try{var t=&quot;currentScript&quot;in document?document.currentScript:function(){for(var t=document.getElementsByTagName(&quot;script&quot;),e=t.length;e--;)if(t[e].getAttribute(&quot;cf-hash&quot;))return t[e]}();if(t&amp;&amp;t.previousSibling){var e,r,n,i,c=t.previousSibling,a=c.getAttribute(&quot;data-cfemail&quot;);if(a){for(e=&quot;&quot;,r=parseInt(a.substr(0,2),16),n=2;a.length-n;n+=2)i=parseInt(a.substr(n,2),16)^r,e+=String.fromCharCode(i);e=document.createTextNode(e),c.parentNode.replaceChild(e,c)}}}catch(u){}}();/* ]]&gt; */&lt;/script&gt;\nFormat settings, CABAC : Yes\nFormat settings, ReFrames : 16 frames\nCodec ID : avc1\nCodec ID/Info : Advanced Video Coding\nDuration : 2h 27mn\nBit rate : 2482 Kbps\nWidth : 1920 pixels\nHeight : 1080 pixels\nDisplay aspect ratio : 16:9\nFrame rate mode : Variable\nFrame rate : 23.976 fps\nMinimum frame rate : 23.974 fps\nMaximum frame rate : 90 000.000 fps\nColor space : YUV\nChroma subsampling : 4:2:0\nBit depth : 8 bits\nScan type : Progressive\nBits/(Pixel*Frame) : 0.050\nStream size : 2.56 GiB (85%)\nWriting library : x264 core 130 r2273 b3065e6\nEncoding settings : cabac=1 / ref=16 / deblock=1:0:0 / analyse=0x3:0x113 / me=hex / subme=7 / psy=1 / psy_rd=1.20:0.20 / mixed_ref=1 / me_range=16 / chroma_me=1 / trellis=1 / 8x8dct=1 / cqm=0 / deadzone=21,11 / fast_pskip=1 / chroma_qp_offset=-3 / threads=12 / lookahead_threads=6 / sliced_threads=0 / nr=0 / decimate=1 / interlaced=0 / bluray_compat=0 / constrained_intra=0 / bframes=16 / b_pyramid=2 / b_adapt=2 / b_bias=0 / direct=1 / weightb=1 / open_gop=0 / weightp=2 / keyint=240 / keyint_min=24 / scenecut=40 / intra_refresh=0 / rc_lookahead=40 / rc=2pass / mbtree=1 / bitrate=2482 / ratetol=1.0 / qcomp=0.60 / qpmin=0 / qpmax=69 / qpstep=4 / cplxblur=20.0 / qblur=0.5 / ip_ratio=1.40 / aq=1:1.20\n\nColor primaries : BT.709\nTransfer characteristics : BT.709\nMatrix coefficients : BT.709\n\nAudio\nID : 2\nFormat : AAC\nFormat/Info : Advanced Audio Codec\nFormat profile : LC\nCodec ID : 40\nDuration : 2h 27mn\nBit rate mode : Variable\nBit rate : 448 Kbps\nMaximum bit rate : 679 Kbps\nChannel(s) : 6 channels\nChannel positions : Front: L C R, Side: L R, LFE\nSampling rate : 48.0 KHz\nCompression mode : Lossy\nStream size : 473 MiB (15%)\nLanguage : English\n\n-------------------------------------------------------------------------------\nPost Information\n-------------------------------------------------------------------------------\nPosted by............: PcTechPaul (http://mypcservices.us/seedbox.htm)\nPosted to............: http://mypcservices.us/mypccleanpro.html\n\n------------------------------------------------------------------------------- ","torrent":{"xt":"urn:btih:04eaed7b9ad66cd7f25fc3b643f7695178bd8901","amp;dn":"The+Blues+Brothers+1980+%7B1080p%7D%7B5.1%7D%7BAAC%7D%7BDTS+MA+Source%7D%7BPcTechP","amp;tr":["udp%3A%2F%2Ftracker.openbittorrent.com%3A80","udp%3A%2F%2Fopen.demonii.com%3A1337","udp%3A%2F%2Ftracker.coppersurfer.tk%3A6969","udp%3A%2F%2Fexodus.desync.com%3A6969"],"infoHash":"04eaed7b9ad66cd7f25fc3b643f7695178bd8901","infoHashBuffer":{"type":"Buffer","data":[4,234,237,123,154,214,108,215,242,95,195,182,67,247,105,81,120,189,137,1]},"announce":[],"urlList":[]}}